HIERARCHY
ROOT hip
{
  OFFSET 0 0 0
  CHANNELS 6 Xposition Yposition Zposition Zrotation Yrotation Xrotation
  JOINT abdomen
  {
    OFFSET 0 20.6881 -0.73152
    CHANNELS 3 Zrotation Xrotation Yrotation
    JOINT chest
    {
      OFFSET 0 11.7043 -0.48768
      CHANNELS 3 Zrotation Xrotation Yrotation
      JOINT neck
      {
        OFFSET 0 22.1894 -2.19456
        CHANNELS 3 Zrotation Xrotation Yrotation
        JOINT head
        {
          OFFSET -0.24384 7.07133 1.2192
          CHANNELS 3 Zrotation Xrotation Yrotation
          JOINT leftEye
          {
            OFFSET 4.14528 8.04674 8.04672
            CHANNELS 3 Zrotation Xrotation Yrotation
            End Site
            {
              OFFSET 1 0 0
            }
          }
          JOINT rightEye
          {
            OFFSET -3.6576 8.04674 8.04672
            CHANNELS 3 Zrotation Xrotation Yrotation
            End Site
            {
              OFFSET 1 0 0
            }
          }
        }
      }
      JOINT rCollar
      {
        OFFSET -2.68224 19.2634 -4.8768
        CHANNELS 3 Zrotation Xrotation Yrotation
        JOINT rShldr
        {
          OFFSET -8.77824 -1.95073 1.46304
          CHANNELS 3 Zrotation Xrotation Yrotation
          JOINT rForeArm
          {
            OFFSET -28.1742 -1.7115 0.48768
            CHANNELS 3 Zrotation Xrotation Yrotation
            JOINT rHand
            {
              OFFSET -22.5879 0.773209 7.07136
              CHANNELS 3 Zrotation Xrotation Yrotation
              JOINT rThumb1
              {
                OFFSET -1.2192 -0.487915 3.41376
                CHANNELS 3 Zrotation Xrotation Yrotation
                JOINT rThumb2
                {
                  OFFSET -3.37035 -0.52449 3.41376
                  CHANNELS 3 Zrotation Xrotation Yrotation
                  End Site
                  {
                    OFFSET -1.78271 -1.18214 1.43049
                  }
                }
              }
              JOINT rIndex1
              {
                OFFSET -7.75947 0.938293 5.60832
                CHANNELS 3 Zrotation Xrotation Yrotation
                JOINT rIndex2
                {
                  OFFSET -2.54057 -0.884171 1.56538
                  CHANNELS 3 Zrotation Xrotation Yrotation
                  End Site
                  {
                    OFFSET -1.62519 -0.234802 1.16502
                  }
                }
              }
              JOINT rMid1
              {
                OFFSET -8.24714 1.18213 3.41376
                CHANNELS 3 Zrotation Xrotation Yrotation
                JOINT rMid2
                {
                  OFFSET -3.10165 -0.590103 1.0647
                  CHANNELS 3 Zrotation Xrotation Yrotation
                  End Site
                  {
                    OFFSET -2.48547 -0.328903 0.83742
                  }
                }
              }
              JOINT rRing1
              {
                OFFSET -8.82822 0.546677 1.51678
                CHANNELS 3 Zrotation Xrotation Yrotation
                JOINT rRing2
                {
                  OFFSET -2.60934 -0.819778 -0.0198488
                  CHANNELS 3 Zrotation Xrotation Yrotation
                  End Site
                  {
                    OFFSET -2.33842 -0.294052 0.168128
                  }
                }
              }
              JOINT rPinky1
              {
                OFFSET -8.27202 -0.0477905 -0.4584
                CHANNELS 3 Zrotation Xrotation Yrotation
                JOINT rPinky2
                {
                  OFFSET -1.82734 -0.647385 -0.700984
                  CHANNELS 3 Zrotation Xrotation Yrotation
                  End Site
                  {
                    OFFSET -1.69225 -0.51767 -0.607171
                  }
                }
              }
            }
          }
        }
      }
      JOINT lCollar
      {
        OFFSET 2.68224 19.2634 -4.8768
        CHANNELS 3 Zrotation Xrotation Yrotation
        JOINT lShldr
        {
          OFFSET 8.77824 -1.95073 1.46304
          CHANNELS 3 Zrotation Xrotation Yrotation
          JOINT lForeArm
          {
            OFFSET 28.1742 -1.7115 0.48768
            CHANNELS 3 Zrotation Xrotation Yrotation
            JOINT lHand
            {
              OFFSET 22.5879 0.773209 7.07136
              CHANNELS 3 Zrotation Xrotation Yrotation
              JOINT lThumb1
              {
                OFFSET 1.2192 -0.487915 3.41376
                CHANNELS 3 Zrotation Xrotation Yrotation
                JOINT lThumb2
                {
                  OFFSET 3.37035 -0.52449 3.41376
                  CHANNELS 3 Zrotation Xrotation Yrotation
                  End Site
                  {
                    OFFSET 1.78271 -1.18214 1.43049
                  }
                }
              }
              JOINT lIndex1
              {
                OFFSET 7.75947 0.938293 5.60832
                CHANNELS 3 Zrotation Xrotation Yrotation
                JOINT lIndex2
                {
                  OFFSET 2.54057 -0.884171 1.56538
                  CHANNELS 3 Zrotation Xrotation Yrotation
                  End Site
                  {
                    OFFSET 1.62519 -0.234802 1.16502
                  }
                }
              }
              JOINT lMid1
              {
                OFFSET 8.24714 1.18213 3.41376
                CHANNELS 3 Zrotation Xrotation Yrotation
                JOINT lMid2
                {
                  OFFSET 3.10165 -0.590103 1.0647
                  CHANNELS 3 Zrotation Xrotation Yrotation
                  End Site
                  {
                    OFFSET 2.48547 -0.328903 0.83742
                  }
                }
              }
              JOINT lRing1
              {
                OFFSET 8.82822 0.546677 1.51678
                CHANNELS 3 Zrotation Xrotation Yrotation
                JOINT lRing2
                {
                  OFFSET 2.60934 -0.819778 -0.0198488
                  CHANNELS 3 Zrotation Xrotation Yrotation
                  End Site
                  {
                    OFFSET 2.33842 -0.294052 0.168128
                  }
                }
              }
              JOINT lPinky1
              {
                OFFSET 8.27202 -0.0477905 -0.4584
                CHANNELS 3 Zrotation Xrotation Yrotation
                JOINT lPinky2
                {
                  OFFSET 1.82734 -0.647385 -0.700984
                  CHANNELS 3 Zrotation Xrotation Yrotation
                  End Site
                  {
                    OFFSET 1.69225 -0.51767 -0.607171
                  }
                }
              }
            }
          }
        }
      }
    }
  }
  JOINT rButtock
  {
    OFFSET -8.77824 4.35084 1.2192
    CHANNELS 3 Zrotation Xrotation Yrotation
    JOINT rThigh
    {
      OFFSET 0 -1.70687 -2.19456
      CHANNELS 3 Zrotation Xrotation Yrotation
      JOINT rShin
      {
        OFFSET 0 -36.8199 0.73152
        CHANNELS 3 Zrotation Xrotation Yrotation
        JOINT rFoot
        {
          OFFSET 0.73152 -45.1104 -5.12064
          CHANNELS 3 Zrotation Xrotation Yrotation
          End Site
          {
            OFFSET -1.1221 -3.69964 12.103
          }
        }
      }
    }
  }
  JOINT lButtock
  {
    OFFSET 8.77824 4.35084 1.2192
    CHANNELS 3 Zrotation Xrotation Yrotation
    JOINT lThigh
    {
      OFFSET 0 -1.70687 -2.19456
      CHANNELS 3 Zrotation Xrotation Yrotation
      JOINT lShin
      {
        OFFSET 0 -36.8199 0.73152
        CHANNELS 3 Zrotation Xrotation Yrotation
        JOINT lFoot
        {
          OFFSET -0.73152 -45.1104 -5.12064
          CHANNELS 3 Zrotation Xrotation Yrotation
          End Site
          {
            OFFSET 1.1221 -3.69964 12.103
          }
        }
      }
    }
  }
}
MOTION
Frames:	5
Frame Time:	0.03333
0.0 0.0 0.0 0.0 0.0 0.0 0.0 0.0 0.0 0.0 0.0 0.0 0.0 0.0 0.0 0.0 0.0 0.0 0.0 0.0 0.0 0.0 0.0 0.0 0.0 0.0 0.0 0.0 0.0 0.0 0.0 0.0 0.0 0.0 0.0 0.0 0.0 0.0 0.0 0.0 0.0 0.0 0.0 0.0 0.0 0.0 0.0 0.0 0.0 0.0 0.0 0.0 0.0 0.0 0.0 0.0 0.0 0.0 0.0 0.0 0.0 0.0 0.0 0.0 0.0 0.0 0.0 0.0 0.0 0.0 0.0 0.0 0.0 0.0 0.0 0.0 0.0 0.0 0.0 0.0 0.0 0.0 0.0 0.0 0.0 0.0 0.0 0.0 0.0 0.0 0.0 0.0 0.0 0.0 0.0 0.0 0.0 0.0 0.0 0.0 0.0 0.0 0.0 0.0 0.0 0.0 0.0 0.0 0.0 0.0 0.0 0.0 0.0 0.0 0.0 0.0 0.0 0.0 0.0 0.0 0.0 0.0 0.0 0.0 0.0 0.0 0.0 0.0 0.0 0.0 0.0 0.0
7.979500000000001 69.0008 -3.5572 -177.181033 3.429045 -175.732024 1.512417 0.021776 -87.05787 6.907179 -2.761996 108.479162 0.266432 8.846318 49.235306 -8.605359 -25.154187 -91.845854 -0.001816 0.0 -0.001688 -0.001816 0.0 -0.001688 -40.05134 -86.055191 -61.582847 -155.562309 80.36771 -176.81603 -95.832901 47.643491 54.412031 -176.205502 -39.043996 150.75173 78.938305 -49.641585 30.622799 -23.00474 -10.16403 -17.317812 -95.099835 39.750716 80.124442 -169.663415 -19.572735 115.018505 -0.056368 0.168142 0.0315 -167.316168 -17.310529 144.227263 -145.121791 1.97458 -179.748573 11.866871 33.476662 -5.205004 -149.120378 25.572117 -145.200258 -171.915346 70.965496 -142.874638 150.120045 21.700961 -155.219188 -100.660243 -67.626703 -74.519955 56.126694 2.829035 16.042976 -43.467844 -66.842173 -29.435107 85.828739 38.630789 -47.955971 -20.912382 -26.465381 -21.711794 155.195013 -24.300127 -122.141271 133.613742 32.149936 -108.416267 8.415378 20.880703 -5.644855 -80.576259 -77.98515 -52.039796 0.019716 -1.725217 0.542112 151.162636 -72.680168 174.587512 135.819421 -11.890905 133.183917 -2.86658 0.203671 1.808126 0.004736 -4.4e-05 0.002368 -22.375796 -39.668961 -115.23987 -94.814585 8.268579 116.324895 100.935117 -51.895502 12.376408 -179.974859 75.750976 -0.020686 -174.127157 24.675548 -110.891422 -70.536606 -8.908031 56.824949 -78.438802 -67.219928 -2.042719
12.0516 69.1983 -5.8683 -177.642379 4.666054 -176.292649 0.805457 0.333862 -98.041326 7.124616 -1.591644 116.801755 1.533102 11.541699 61.740197 -16.491702 -24.197767 -110.5401 -0.003104 -0.0 0.000633 -0.003104 -0.0 0.000633 -157.371409 -17.927832 164.689923 -132.479897 -70.094513 -137.106997 165.192057 -49.716475 -166.347904 -14.620591 -22.78127 -5.982275 -174.806779 -12.460203 89.833264 -163.031842 -1.792078 87.175359 18.123506 -32.540619 -5.968986 10.949876 6.042507 -0.868405 -36.03719 51.722924 29.832171 80.702997 -77.898008 52.071291 -70.378982 -72.130763 -87.27961 14.022515 27.429077 -0.840631 -144.857865 11.07947 -141.543987 -24.166153 -39.116289 -25.597595 9.650752 34.836412 -11.198398 -24.222862 34.543088 14.232897 -17.612139 85.93308 86.633968 -170.499361 -20.179705 -143.179563 14.735546 13.585473 -3.96752 10.591898 9.557358 -16.82536 108.427252 34.16151 -91.743521 172.193029 -24.940813 -115.596948 36.036277 51.723311 -29.831668 1.165111 12.655224 -2.270843 0.001667 -0.060718 0.019913 -8.119213 22.052609 -3.183723 -1.300581 3.491298 -1.192021 158.613286 52.38965 149.937729 -0.000514 0.001061 0.00066 -23.549284 -42.275556 -32.938915 -73.880112 75.402014 12.153886 -144.619303 -50.343867 -37.516257 -0.00343 -0.000639 -0.001715 0.397504 -49.486339 -179.477148 -70.152575 -74.391469 -102.919362 139.919177 44.987249 124.255168
15.9658 70.36580000000001 -7.7485 -177.648071 5.531785 -177.308921 -1.672494 4.033199 0.048133 -0.488615 -10.528418 14.80166 -17.26939 14.503209 -61.13949 39.363771 15.945962 8.644664 0.002522 0.0 0.000659 0.002522 0.0 0.000659 -142.973552 39.431538 147.389882 -148.448629 80.740864 137.81866 125.542314 88.435709 -92.050902 -11.651897 -30.087925 -7.660423 99.08096 -51.215609 44.800968 -32.430961 -1.119666 -10.959108 -27.49006 30.684912 20.156474 -88.606849 48.36925 66.470098 68.98841 -80.152448 40.583359 -86.05021 64.061322 77.696805 -132.482755 54.103064 155.53378 -150.326537 -53.764625 -169.494392 -87.576348 -50.20677 -85.929181 -79.927942 -53.442222 -80.488267 155.417165 -2.951421 -161.718607 -75.453589 -55.194535 -56.346689 95.452143 -60.146632 77.928604 -5.473434 -15.467344 -1.565579 -51.060351 -41.203248 -12.857598 22.966272 7.636288 7.772261 14.228953 19.203009 -9.560736 9.771554 23.671672 -6.850372 -0.046793 -0.138729 0.026631 -3.434512 -0.605427 0.105747 145.11874 0.185195 179.187156 -11.199789 13.760804 7.377987 -19.28035 66.825422 -13.095712 -1.56345 0.289318 0.60355 -179.998105 75.749795 -0.001955 160.063078 29.207069 9.682364 -9.849787 72.901551 -82.654916 -158.960308 -76.353662 -68.610051 -0.000912 -0.000153 -0.000228 -3.546524 -43.129169 -11.027314 -20.643066 76.175952 -92.705892 52.097994 -14.955059 126.973489
19.68 71.29910000000001 -9.4649 -177.405779 6.555642 -177.684046 -1.205928 4.276295 0.03982 -1.032603 -11.323237 11.294008 -17.024015 20.631793 -91.419949 34.86054 29.922409 37.537757 -0.000902 -0.0 0.002585 -4.9e-05 0.0 -0.001271 -6.042861 25.599007 7.235037 -109.666054 50.8763 110.170947 94.704705 35.316726 -116.173062 -52.324091 44.391492 32.584265 -173.771556 -11.439562 89.891518 -91.099727 11.813983 34.788941 12.215434 -21.784969 -5.121193 -0.116258 18.817265 3.864914 -0.057647 0.167888 0.031951 -83.252991 64.351577 75.224749 -0.022198 -1.726052 -0.542428 -78.161661 78.783846 91.718186 0.09933 0.258552 0.089137 -146.246843 8.14476 -142.828484 149.905743 22.421915 -154.975573 143.188495 -8.684699 -155.77681 -161.808972 -18.277159 -110.957596 -177.684736 3.298796 -144.984624 -86.309717 -50.599241 -35.755512 90.565051 38.601329 -52.450209 -37.216776 -57.917479 0.641891 -3.017398 19.845544 -1.162976 0.057685 0.167873 -0.032044 -175.169158 -56.7088 -138.429234 145.119544 0.184957 179.187634 152.424903 -24.845003 175.37705 157.020263 56.121672 150.391557 10.588915 -23.996003 12.124579 0.000385 -0.00018 -0.000496 -28.953556 -44.886852 -21.742981 -7.974444 74.338033 -108.341742 25.835807 39.584489 96.064029 179.977621 75.748843 0.015312 173.890408 36.114121 6.136234 43.017116 65.725856 32.243084 -132.042555 38.285345 20.924153
